<svg width="16" height="16" viewBox="0 0 16 16" fill="none" xmlns="http://www.w3.org/2000/svg">
<g clip-path="url(#clip0)">
<path d="M-0.295898 0.0166638C0.658278 -0.104422 2.63819 0.379922 2.92445 3.28598M2.92445 3.28598H13.0437C13.7096 3.28598 14.1895 3.92464 14.0042 4.56425L13.0037 8.0179C12.7559 8.87296 11.9729 9.46136 11.0827 9.46136H3.28226M2.92445 3.28598L3.28226 9.46136M3.28226 9.46136C2.92445 9.58245 2.20881 10.0426 2.20881 10.9144C2.20881 11.7862 2.92445 12.3674 3.54789 12.3674H11.512" stroke="white" stroke-width="0.7" stroke-linecap="round"/>
<path d="M5.07873 14.1837C5.07873 14.9985 4.42947 15.65 3.63966 15.65C2.84984 15.65 2.20059 14.9985 2.20059 14.1837C2.20059 13.3689 2.84984 12.7174 3.63966 12.7174C4.42947 12.7174 5.07873 13.3689 5.07873 14.1837Z" stroke="white" stroke-width="0.7"/>
<path d="M12.236 14.1837C12.236 14.9985 11.5867 15.65 10.7969 15.65C10.0071 15.65 9.35781 14.9985 9.35781 14.1837C9.35781 13.3689 10.0071 12.7174 10.7969 12.7174C11.5867 12.7174 12.236 13.3689 12.236 14.1837Z" stroke="white" stroke-width="0.7"/>
</g>
<defs>
<clipPath id="clip0">
<rect width="16" height="16" fill="black"/>
</clipPath>
</defs>
</svg>
